<svg xmlns="http://www.w3.org/2000/svg" viewBox="0 0 512 512" role="img" aria-label="Bot favicon">
  <defs>
    <linearGradient id="bodyGrad" x1="0" y1="0" x2="1" y2="1">
      <stop offset="0%" stop-color="#ff1d25"/>
      <stop offset="100%" stop-color="#c4001a"/>
    </linearGradient>
    <linearGradient id="visorGrad" x1="0" y1="0" x2="1" y2="1">
      <stop offset="0%" stop-color="#d9f6ff"/>
      <stop offset="48%" stop-color="#91d7ff"/>
      <stop offset="100%" stop-color="#6b8cff"/>
    </linearGradient>
  </defs>

  <ellipse cx="238" cy="456" rx="144" ry="26" fill="#000" opacity="0.18"/>
  <path d="M112 127c0-52 42-94 94-94h76c52 0 94 42 94 94v146c0 82-66 148-148 148S80 355 80 273V127c0-0 10-0 32 0z" fill="url(#bodyGrad)" stroke="#1d0010" stroke-width="18" stroke-linejoin="round"/>
  <path d="M302 53c38 0 69 31 69 69v44c0 10-8 18-18 18h-84c-10 0-18-8-18-18V122c0-38 31-69 69-69z" fill="url(#visorGrad)" stroke="#1d0010" stroke-width="16"/>
  <path d="M317 108c25 0 45 8 59 24 4 5 4 13-1 18-5 5-13 5-18 1-11-11-27-17-43-17-10 0-18-8-18-18 0-11 9-19 21-19z" fill="#fff" opacity="0.18"/>
</svg>
